# xmcd CD database file
#
# Track frame offsets:
#	182
#	12067
#	23812
#	35930
#	48807
#	61165
#	74387
#	90677
#	102917
#	115887
#	131912
#	151427
#	164487
#	176497
#	187202
#	199947
#	212577
#
# Disc length: 3051 seconds
#
# Revision: 3
# Processed by: cddbd v1.5.2PL0 Copyright (c) Steve Scherf et al.
# Submitted via: jetAudio 7
#
DISCID=f20be911
DTITLE=Various Artist - Country Music's Greatest Hits Disc 3
DYEAR=1997
DGENRE=Country
TTITLE0=Sixteen Tons
TTITLE1=Ring Of Fire
TTITLE2=Galveston
TTITLE3=Distant Drums
TTITLE4=The Most Beautiful Girl
TTITLE5=Talking In Your Sleep
TTITLE6=Lucille
TTITLE7=Stand By Your Man
TTITLE8=The Story Of My Life
TTITLE9=Always On My Mind
TTITLE10=Coward Of The County
TTITLE11=Rose Garden
TTITLE12=Jolene
TTITLE13=Blue Eyes Crying In The Rain
TTITLE14=You're My Best Friend
TTITLE15=Please Don't Stop Loving Me
TTITLE16=Blanket On The Ground
EXTD=
EXTT0=
EXTT1=
EXTT2=
EXTT3=
EXTT4=
EXTT5=
EXTT6=
EXTT7=
EXTT8=
EXTT9=
EXTT10=
EXTT11=
EXTT12=
EXTT13=
EXTT14=
EXTT15=
EXTT16=
PLAYORDER=
